<?xml version="1.0" standalone="no"?>
<!DOCTYPE svg PUBLIC "-//W3C//DTD SVG 20010904//EN"
 "http://www.w3.org/TR/2001/REC-SVG-20010904/DTD/svg10.dtd">
<svg version="1.0" xmlns="http://www.w3.org/2000/svg"
 width="577.000000pt" height="577.000000pt" viewBox="0 0 577.000000 577.000000"
 preserveAspectRatio="xMidYMid meet">
<metadata>
Created by potrace 1.14, written by Peter Selinger 2001-2017
</metadata>
<g transform="translate(0.000000,577.000000) scale(0.100000,-0.100000)"
fill="#000000" stroke="none">
<path d="M2830 4587 c-3 -3 -27 -8 -53 -11 -81 -10 -204 -74 -269 -141 -32
-32 -61 -55 -65 -51 -5 4 11 44 34 87 l42 80 -37 -6 c-42 -7 -51 -10 -72 -18
-8 -3 -40 -13 -70 -23 -54 -16 -153 -66 -176 -88 -6 -6 -22 -18 -35 -26 -59
-39 -130 -134 -160 -215 -15 -42 -17 -120 -5 -196 7 -45 5 -48 -30 -80 -118
-109 -174 -171 -173 -192 1 -45 -11 -108 -23 -121 -7 -7 -103 -105 -213 -217
-110 -112 -213 -221 -229 -242 -26 -34 -27 -40 -16 -67 7 -17 16 -30 21 -30 5
0 9 -6 9 -14 0 -8 22 -33 49 -55 30 -25 52 -53 56 -70 3 -15 21 -51 40 -80 19
-29 35 -55 35 -58 0 -17 107 -93 140 -101 46 -10 140 2 140 19 0 5 6 9 14 9
19 0 86 67 127 126 71 105 124 144 191 144 54 0 78 -23 78 -76 0 -27 -5 -44
-12 -44 -6 0 -8 -3 -5 -7 14 -14 -118 -96 -174 -108 -19 -4 -52 -19 -74 -33
-59 -40 -165 -143 -165 -161 0 -21 92 -118 145 -154 22 -15 49 -27 61 -27 59
0 138 63 239 190 99 124 106 130 178 132 81 2 84 2 93 11 4 4 20 7 35 7 31 0
145 49 192 82 43 31 47 30 172 -46 71 -43 125 -148 125 -240 0 -96 -56 -231
-125 -302 -6 -7 -22 -25 -36 -40 -50 -60 -154 -136 -259 -192 -196 -104 -452
-152 -685 -128 -112 12 -135 15 -220 37 -44 12 -90 23 -103 26 -12 3 -25 9
-28 14 -7 12 -44 12 -44 0 0 -5 3 -11 8 -13 4 -2 27 -29 51 -60 24 -32 47 -58
52 -58 5 0 9 -5 9 -12 0 -16 186 -188 203 -188 3 0 26 -14 51 -30 79 -54 248
-122 331 -134 99 -15 174 -22 218 -20 30 1 47 -2 44 -9 -3 -10 -144 -56 -184
-59 -35 -3 -18 -14 54 -33 37 -10 76 -22 85 -27 10 -5 37 -11 60 -14 24 -4 53
-10 65 -15 43 -16 119 -23 258 -24 248 0 384 56 559 231 51 52 67 63 61 44 -4
-14 -14 -32 -21 -41 -8 -9 -11 -19 -8 -22 4 -4 -1 -9 -10 -13 -9 -3 -16 -11
-16 -18 0 -7 -7 -21 -15 -31 -76 -99 -85 -115 -69 -115 62 0 320 103 388 155
18 14 38 25 44 25 7 0 12 3 12 8 0 4 17 18 37 32 44 30 114 104 166 174 20 28
42 56 47 63 6 7 10 15 10 18 0 3 9 27 21 53 32 73 37 85 44 117 4 17 9 39 11
50 3 11 9 38 13 60 8 38 13 30 13 -25 1 -35 -12 -168 -17 -183 -3 -7 -11 -40
-19 -75 -14 -59 -13 -62 2 -51 24 18 77 76 120 129 20 25 41 50 47 55 18 16
105 152 105 163 0 6 3 12 8 14 8 3 82 155 86 178 2 8 6 22 9 30 3 8 13 50 22
93 36 170 -3 363 -105 513 -34 50 -35 54 -18 54 6 0 9 -3 6 -6 -4 -3 1 -13 10
-23 42 -44 69 -79 85 -111 10 -19 22 -42 27 -50 9 -16 22 -45 61 -143 28 -69
29 -67 61 88 14 73 20 137 19 238 0 76 -3 143 -7 148 -3 6 -8 25 -11 42 -8 59
-34 142 -60 197 -24 48 -88 156 -103 170 -3 3 -30 32 -60 64 -42 44 -49 56
-32 51 27 -8 145 -84 150 -97 2 -4 8 -8 12 -8 12 0 -20 91 -64 179 -110 223
-260 384 -442 475 -29 14 -57 26 -63 26 -7 0 -24 6 -39 14 -26 13 -84 25 -130
26 -14 0 -21 4 -16 11 7 11 161 7 232 -6 18 -4 32 -2 32 3 0 6 -35 36 -77 68
-43 33 -83 64 -90 70 -6 6 -25 17 -42 24 -17 7 -31 16 -31 21 0 5 -5 9 -11 9
-6 0 -38 14 -71 30 -155 79 -339 94 -532 44 -27 -6 -28 -5 -15 8 8 9 16 14 18
12 2 -2 16 5 30 15 14 10 47 28 74 40 26 12 47 23 47 26 0 5 -64 23 -114 31
-21 3 -48 8 -60 11 -31 7 -280 16 -286 10z m-747 -858 c29 -7 47 -16 47 -25 0
-34 -91 -104 -162 -125 -26 -7 -30 -4 -48 31 -35 68 -26 105 28 116 8 1 15 4
17 6 9 9 75 8 118 -3z"/>
</g>
</svg>
